<?xml version="1.0" standalone="no"?>
<!DOCTYPE svg PUBLIC "-//W3C//DTD SVG 20010904//EN"
 "http://www.w3.org/TR/2001/REC-SVG-20010904/DTD/svg10.dtd">
<svg version="1.0" xmlns="http://www.w3.org/2000/svg"
 width="200.000000pt" height="200.000000pt" viewBox="0 0 200.000000 200.000000"
 preserveAspectRatio="xMidYMid meet">

<g transform="translate(0.000000,200.000000) scale(0.100000,-0.100000)"
fill="#000000" stroke="none">
<path d="M867 1752 c-16 -17 -17 -84 -17 -754 0 -699 1 -736 18 -751 23 -21
56 -22 76 -1 14 14 16 96 16 754 0 658 -2 740 -16 754 -21 21 -57 20 -77 -2z"/>
<path d="M501 1603 l-21 -18 2 -590 3 -589 26 -15 c24 -13 29 -13 53 2 l26 17
0 590 0 589 -22 15 c-29 20 -41 20 -67 -1z"/>
<path d="M1431 1603 l-21 -18 2 -605 3 -604 26 -15 c24 -13 29 -13 53 2 l26
17 0 605 0 604 -22 15 c-29 20 -41 20 -67 -1z"/>
<path d="M1069 1456 l-24 -12 -3 -440 c-2 -482 -4 -467 55 -467 53 1 53 2 53
463 0 442 -1 449 -41 463 -9 3 -27 0 -40 -7z"/>
<path d="M307 1322 c-15 -17 -17 -55 -17 -339 0 -297 1 -321 18 -336 22 -20
63 -22 80 -5 17 17 17 669 0 686 -18 18 -63 14 -81 -6z"/>
<path d="M1236 1318 c-14 -19 -16 -68 -16 -333 0 -343 2 -355 60 -355 58 0 60
12 60 355 0 265 -2 314 -16 333 -20 30 -68 30 -88 0z"/>
<path d="M676 1288 c-14 -19 -16 -64 -16 -288 0 -294 3 -310 60 -310 57 0 60
16 60 310 0 294 -3 310 -60 310 -18 0 -34 -8 -44 -22z"/>
<path d="M1612 1298 c-17 -17 -17 -609 0 -626 18 -18 63 -14 81 6 15 16 17 53
17 309 0 268 -1 291 -18 306 -22 20 -63 22 -80 5z"/>
<path d="M116 1228 c-13 -19 -16 -58 -16 -228 0 -229 5 -250 60 -250 55 0 60
21 60 250 0 229 -5 250 -60 250 -18 0 -34 -8 -44 -22z"/>
<path d="M1796 1198 c-13 -18 -16 -55 -16 -198 0 -143 3 -180 16 -198 17 -25
51 -29 80 -8 18 13 19 28 19 206 0 178 -1 193 -19 206 -29 21 -63 17 -80 -8z"/>
</g>
</svg>
