<?xml version="1.0" encoding="iso-8859-1"?>
<!-- Uploaded to: SVG Repo, www.svgrepo.com, Generator: SVG Repo Mixer Tools -->
<svg height="800px" width="800px" version="1.1" id="Layer_1" xmlns="http://www.w3.org/2000/svg" xmlns:xlink="http://www.w3.org/1999/xlink" 
	 viewBox="0 0 511.999 511.999" xml:space="preserve">
<g>
	<path style="fill:#FFCE6E;" d="M456.212,120.428L391.57,55.786c-3.269-3.269-3.269-8.567,0-11.837
		c3.269-3.269,8.567-3.269,11.837,0l64.642,64.642c3.269,3.269,3.269,8.567,0,11.837
		C464.78,123.696,459.481,123.696,456.212,120.428z"/>
	<path style="fill:#FFCE6E;" d="M476.96,99.679l-64.642-64.642c-3.269-3.269-3.269-8.567,0-11.837c3.269-3.269,8.567-3.269,11.837,0
		l64.642,64.642c3.269,3.269,3.269,8.567,0,11.837C485.528,102.947,480.23,102.947,476.96,99.679z"/>
	<path style="fill:#FFCE6E;" d="M497.71,78.93l-64.642-64.642c-3.269-3.269-3.269-8.567,0-11.837c3.269-3.269,8.567-3.269,11.837,0
		l64.642,64.642c3.269,3.269,3.269,8.567,0,11.837C506.277,82.199,500.978,82.199,497.71,78.93z"/>
</g>
<path style="fill:#FF8A3B;" d="M326.414,222.244l-36.653-36.665c-19.099-16.534-54.2-37.203-89.409-18.357
	c-41.504,22.159-26.245,53.363-58.619,77.354c-24.028,17.787-92.525,2.59-131.351,74.363
	c-26.707,49.377,2.454,101.73,38.365,137.679l3.338,3.312l3.313,3.327c35.923,35.923,88.289,65.072,137.666,38.353
	c71.774-38.826,56.577-107.298,74.364-131.326c23.978-32.373,55.206-17.126,77.354-58.632
	C363.627,276.443,342.949,241.343,326.414,222.244z"/>
<path style="fill:#261D16;" d="M160.001,439.594c-2.143,0-4.284-0.817-5.919-2.451l-79.228-79.229c-3.269-3.27-3.269-8.568,0-11.837
	c3.271-3.269,8.569-3.266,11.837,0l79.228,79.229c3.269,3.27,3.269,8.568,0,11.837C164.285,438.777,162.142,439.594,160.001,439.594
	z"/>
<g>
	<path style="fill:#4D3A2D;" d="M252.164,323.281c-17.475,17.522-45.973,17.511-63.459,0c-17.511-17.462-17.525-45.948-0.012-63.423
		c17.511-17.51,45.997-17.522,63.484-0.074C269.686,277.31,269.675,305.843,252.164,323.281z"/>
	<path style="fill:#4D3A2D;" d="M489.01,22.987c-17.083-17.083-36.216-12.645-36.216-12.645l-53.333,53.333l-13.157,29.019
		l0.708,32.291l32.271,0.728l29.038-13.177l53.334-53.334C501.655,59.203,506.094,40.071,489.01,22.987z"/>
</g>
<polygon style="fill:#261D16;" points="386.303,92.695 225.949,247.054 264.953,286.036 419.284,125.713 "/>
</svg>