<?xml version="1.0" standalone="no"?>
<!DOCTYPE svg PUBLIC "-//W3C//DTD SVG 20010904//EN"
 "http://www.w3.org/TR/2001/REC-SVG-20010904/DTD/svg10.dtd">
<svg version="1.0" xmlns="http://www.w3.org/2000/svg"
 width="604.000000pt" height="620.000000pt" viewBox="0 0 604.000000 620.000000"
 preserveAspectRatio="xMidYMid meet">

<g transform="translate(0.000000,620.000000) scale(0.100000,-0.100000)"
fill="#000000" stroke="none">
<path d="M2625 5914 c-11 -3 -58 -12 -105 -21 -47 -8 -128 -31 -180 -50 -431
-158 -744 -517 -857 -982 -26 -104 -26 -114 -32 -595 l-6 -489 -45 -12 c-164
-42 -302 -170 -369 -343 l-26 -67 -3 -1282 c-2 -1115 -1 -1291 13 -1355 40
-193 168 -337 361 -405 l79 -28 1585 -3 c1068 -2 1608 1 1655 8 234 35 424
213 464 434 15 84 15 2539 0 2622 -38 208 -209 382 -421 428 l-26 6 -5 472
c-4 425 -7 483 -25 568 -60 286 -181 510 -381 711 -188 187 -396 302 -666 366
-59 14 -143 17 -530 19 -253 1 -469 0 -480 -2z m907 -458 c315 -60 577 -296
683 -611 39 -118 45 -195 45 -632 l0 -423 -1186 0 -1186 0 5 443 c5 489 7 515
72 675 67 165 217 346 358 430 82 50 203 99 282 116 100 21 820 22 927 2z
m-284 -2481 c234 -55 403 -253 419 -490 13 -197 -89 -388 -261 -489 l-66 -39
0 -320 c0 -306 -1 -323 -21 -365 -31 -62 -85 -95 -166 -100 -111 -7 -197 45
-222 135 -7 23 -11 160 -11 340 l0 302 -62 33 c-184 96 -301 307 -285 511 25
327 349 559 675 482z"/>
</g>
</svg>
