<?xml version="1.0" standalone="no"?>
<!DOCTYPE svg PUBLIC "-//W3C//DTD SVG 20010904//EN"
 "http://www.w3.org/TR/2001/REC-SVG-20010904/DTD/svg10.dtd">
<svg version="1.0" xmlns="http://www.w3.org/2000/svg"
 width="1124.000000pt" height="562.000000pt" viewBox="0 0 1124.000000 562.000000"
 preserveAspectRatio="xMidYMid meet">

<g transform="translate(0.000000,562.000000) scale(0.100000,-0.100000)"
fill="#000000" stroke="none">
<path d="M5 2810 c0 -1548 1 -2182 2 -1407 2 774 2 2040 0 2815 -1 774 -2 140
-2 -1408z"/>
<path d="M50 2810 l0 -2810 5595 0 5595 0 0 2810 0 2810 -5595 0 -5595 0 0
-2810z m8100 2535 c399 -60 731 -284 934 -630 118 -200 176 -416 176 -655 0
-345 -126 -654 -366 -900 l-94 -96 -19 -409 c-17 -372 -20 -410 -37 -422 -10
-7 -25 -11 -32 -8 -8 3 -171 129 -363 282 -355 281 -371 297 -337 331 7 7 19
12 28 12 8 0 155 -111 325 -247 l310 -246 6 64 c4 35 12 201 20 369 l13 305
108 112 c59 62 128 144 154 183 401 621 179 1434 -481 1763 -163 80 -326 117
-525 117 -198 0 -355 -34 -515 -110 -294 -141 -519 -391 -629 -698 -87 -245
-89 -554 -3 -794 l22 -63 120 -6 c168 -9 290 -43 402 -115 134 -85 200 -181
191 -276 -7 -66 -51 -135 -113 -173 -44 -27 -57 -30 -129 -30 -103 1 -139 19
-253 128 -98 95 -164 179 -229 295 -26 45 -52 82 -58 82 -6 0 -44 -9 -84 -20
-216 -60 -394 -210 -491 -413 -51 -106 -71 -201 -71 -329 0 -128 19 -220 65
-317 132 -277 394 -450 685 -451 l75 0 190 -151 190 -151 7 49 c3 26 9 128 13
225 l7 178 67 67 c99 101 144 174 212 350 11 29 54 31 68 4 8 -14 5 -37 -13
-87 -44 -129 -98 -217 -197 -319 l-49 -51 -11 -249 c-6 -138 -15 -260 -20
-272 -19 -48 -51 -31 -273 146 l-212 168 -89 8 c-377 31 -662 261 -772 622
-23 77 -26 106 -27 228 0 117 3 153 22 220 86 301 309 526 600 607 73 20 82
25 77 43 -111 378 -92 710 57 1010 99 197 227 352 398 479 116 86 203 133 335
179 209 72 413 93 615 62z m-513 -1115 c24 0 73 -52 83 -88 20 -75 -28 -153
-105 -168 -68 -12 -155 59 -155 128 0 74 79 146 145 133 11 -3 25 -5 32 -5z
m396 -4 c75 -32 105 -109 71 -181 -23 -48 -88 -80 -142 -70 -44 8 -97 61 -105
105 -13 60 37 137 98 153 34 8 45 7 78 -7z m420 -8 c32 -16 57 -70 57 -120 0
-119 -140 -167 -225 -78 -26 27 -30 39 -30 85 0 43 5 59 25 80 48 52 114 65
173 33z m-1827 -1432 c28 -28 34 -42 34 -75 0 -123 -160 -167 -216 -59 -40 78
14 168 102 168 39 0 51 -5 80 -34z m350 0 c26 -26 34 -42 34 -70 0 -96 -88
-154 -169 -112 -39 21 -61 58 -61 107 0 33 6 47 34 75 29 29 41 34 81 34 40 0
52 -5 81 -34z m336 14 c57 -44 61 -125 9 -174 -100 -96 -253 34 -175 149 33
47 121 61 166 25z m2702 -846 c12 -11 16 -36 16 -95 l0 -79 238 0 c227 0 239
-1 287 -24 58 -27 107 -78 126 -133 20 -56 20 -960 0 -1016 -17 -50 -64 -103
-115 -130 -36 -19 -62 -22 -206 -27 l-165 -5 -93 -137 c-125 -185 -118 -186
-257 25 l-78 117 -147 0 c-170 0 -218 12 -275 67 -76 74 -75 60 -75 599 l0
480 25 51 c15 28 41 63 60 78 66 50 99 55 345 55 l228 0 3 78 c4 82 17 112 50
112 9 0 25 -7 33 -16z m-2259 -316 c22 -24 73 -139 183 -410 83 -208 152 -386
152 -398 0 -18 -6 -20 -73 -20 -71 0 -74 1 -86 28 -7 15 -67 162 -133 327 -66
165 -123 304 -127 308 -4 4 -37 -68 -73 -160 l-66 -168 71 -5 72 -5 29 -59
c42 -87 37 -90 -115 -94 l-124 -3 -24 -62 c-40 -106 -41 -107 -122 -107 -50 0
-71 4 -75 14 -5 14 298 779 319 805 50 61 141 66 192 9z m-6913 22 c87 -25
134 -122 126 -264 -5 -98 -32 -163 -79 -197 -33 -23 -42 -24 -254 -29 l-220
-5 -5 -175 -5 -175 -64 -3 c-45 -2 -67 1 -72 10 -14 22 -11 472 3 486 9 9 80
12 258 12 238 0 248 1 266 21 14 16 19 36 19 80 0 96 7 93 -288 97 -182 2
-254 6 -259 15 -12 19 -9 112 4 125 15 15 515 17 570 2z m843 -1 c65 -17 111
-55 137 -112 22 -50 23 -61 23 -307 l0 -255 -30 -60 c-24 -47 -40 -65 -75 -85
-43 -24 -54 -25 -235 -29 -226 -4 -280 5 -335 56 -68 61 -75 94 -75 373 0 210
3 252 18 291 22 58 72 107 128 124 54 17 385 20 444 4z m432 -1 c4 -7 10 -156
13 -330 5 -314 5 -318 28 -340 22 -22 31 -23 230 -28 l207 -5 0 -70 0 -70
-230 0 c-219 0 -232 1 -272 22 -48 26 -79 66 -101 131 -21 62 -31 664 -12 687
16 19 125 21 137 3z m764 -4 c7 -9 61 -104 119 -211 59 -107 110 -196 115
-196 4 -1 51 77 104 173 53 96 106 192 118 213 l22 37 71 0 c51 0 72 -4 76
-14 3 -7 -67 -141 -155 -298 l-161 -284 0 -120 c0 -65 -4 -125 -9 -132 -5 -9
-27 -12 -72 -10 l-64 3 -3 128 -3 128 -160 285 c-88 157 -158 292 -155 300 8
21 139 20 157 -2z m1474 -59 l0 -70 -255 -5 c-179 -4 -262 -9 -277 -18 -34
-19 -43 -73 -42 -267 0 -212 8 -244 59 -262 42 -14 338 -17 360 -3 12 7 15 31
15 107 l0 98 -143 3 -143 3 3 72 3 72 199 3 c138 2 203 -1 212 -9 11 -9 14
-51 14 -191 0 -197 -9 -254 -47 -290 -24 -22 -30 -23 -241 -26 -255 -4 -306 4
-362 55 -68 61 -75 94 -75 373 0 275 6 308 69 369 57 55 90 60 386 58 l265 -2
0 -70z m275 -250 c4 -231 8 -326 18 -342 19 -34 73 -43 268 -43 157 0 183 -2
188 -16 10 -27 6 -110 -6 -122 -9 -9 -70 -12 -213 -12 -230 0 -281 10 -332 62
-63 65 -67 88 -71 447 -2 178 -1 330 2 338 4 11 22 13 73 11 l68 -3 5 -320z
m1207 310 c61 -18 116 -74 135 -137 18 -60 18 -496 0 -556 -7 -24 -29 -61 -49
-83 -56 -62 -103 -71 -341 -67 -188 3 -199 4 -242 28 -35 19 -51 38 -74 83
-39 78 -55 257 -39 445 15 192 49 254 156 288 63 19 388 19 454 -1z m1018 -60
l0 -70 -147 -3 -148 -3 -2 -352 -3 -352 -70 0 -70 0 -3 352 -2 352 -148 3
-147 3 -3 59 c-2 32 -1 65 2 73 5 11 69 13 373 11 l368 -3 0 -70z m1503 63
c17 -17 17 -819 0 -836 -7 -7 -38 -12 -70 -12 -46 0 -59 4 -68 19 -6 13 -10
160 -10 411 0 251 4 398 10 411 9 15 22 19 68 19 32 0 63 -5 70 -12z m712
-187 c6 -12 10 -101 10 -220 0 -212 -4 -231 -50 -231 -43 0 -50 32 -50 238 0
114 4 201 10 213 7 12 21 19 40 19 19 0 33 -7 40 -19z m1898 7 c9 -9 12 -72
12 -223 0 -221 -3 -235 -45 -235 -42 0 -45 14 -45 235 0 221 3 235 45 235 12
0 26 -5 33 -12z m-3860 -530 c7 -7 12 -35 12 -63 0 -28 -5 -56 -12 -63 -7 -7
-33 -12 -58 -12 -25 0 -51 5 -58 12 -7 7 -12 35 -12 63 0 28 5 56 12 63 7 7
33 12 58 12 25 0 51 -5 58 -12z"/>
<path d="M6890 3507 c0 -8 28 -57 61 -108 70 -107 223 -265 284 -294 110 -53
235 10 235 118 0 51 -20 86 -77 137 -97 86 -249 142 -417 156 -74 6 -86 5 -86
-9z"/>
<path d="M9433 1660 c-69 -41 -68 -38 -68 -405 l0 -330 615 0 615 0 3 323 c3
359 0 375 -62 413 -29 18 -60 19 -551 19 -498 0 -521 -1 -552 -20z m328 -339
c48 -48 38 -116 -22 -147 -41 -21 -82 -10 -115 29 -75 89 54 200 137 118z
m568 3 c64 -54 26 -159 -57 -159 -74 0 -120 71 -88 134 30 58 94 69 145 25z"/>
<path d="M9363 815 c-11 -31 3 -173 21 -200 37 -57 66 -65 238 -65 86 0 168
-4 182 -10 16 -6 52 -49 98 -119 40 -61 76 -111 80 -111 5 0 42 51 84 114 47
70 84 116 97 120 12 3 94 6 182 6 139 0 164 3 191 19 47 29 64 75 64 175 l0
86 -615 0 c-547 0 -616 -2 -622 -15z"/>
<path d="M1294 1506 c-47 -21 -54 -54 -54 -268 0 -223 7 -251 67 -267 57 -16
296 -14 337 3 49 21 56 52 56 268 0 216 -7 248 -60 267 -48 16 -307 14 -346
-3z"/>
<path d="M5444 1513 c-12 -2 -30 -13 -40 -25 -17 -18 -19 -40 -19 -249 0 -293
-15 -273 198 -277 191 -4 226 5 245 63 18 52 13 419 -5 451 -7 12 -27 27 -44
33 -30 10 -287 14 -335 4z"/>
</g>
</svg>
